<svg xmlns="http://www.w3.org/2000/svg" xmlns:xlink="http://www.w3.org/1999/xlink" xmlns:v="http://vecta.io" width="64" height="38" viewBox="0 0 64 38"><style><![CDATA[svg{stroke:#000;stroke-linecap:round;stroke-linejoin:round;fill:#fff;fill-rule:evenodd;font-family:Roboto;font-size:14px;text-anchor:middle}svg text{paint-order:stroke;white-space:pre}svg .Text\.cls{stroke:none}]]></style><path d="M 64 36.1674 C 61.672 36.7594 60.232 36.1934 58.94 34.2534 L 49.752 21.5414 L 48.424 19.7814 L 37.694 34.2954 C 36.468 36.0414 35.182 36.8014 32.894 36.1834 L 46.634 17.7394 L 33.842 1.0794 C 36.042 0.6514 37.562 0.8694 38.912 2.8394 L 48.442 15.7094 L 58.042 2.9094 C 59.272 1.1634 60.594 0.4994 62.802 1.1434 L 57.842 7.7194 L 51.122 16.4694 C 50.322 17.4694 50.432 18.1534 51.168 19.1194 L 64 36.1674 Z M 0.016 17.4314 L 1.14 11.9034 C 4.2 0.9634 16.74 -3.5826 25.388 3.1774 C 30.442 7.1534 31.698 12.7774 31.448 19.0774 L 2.96 19.0774 C 2.532 30.4174 10.694 37.2614 21.1 33.7694 C 24.75 32.5434 26.9 29.6854 27.976 26.1094 C 28.522 24.3174 29.426 24.0374 31.11 24.5494 C 30.25 29.0214 28.31 32.7574 24.21 35.0954 C 18.084 38.5954 9.34 37.4634 4.74 32.5994 C 2 29.7774 0.868 26.2014 0.36 22.3774 C 0.28 21.7454 0.12 21.1434 0 20.5374 Q 0.016 18.9854 0.016 17.4334 Z M 3.012 16.6714 L 28.756 16.6714 C 28.588 8.4714 23.482 2.6474 16.504 2.5974 C 8.844 2.5374 3.344 8.2234 3.012 16.6714 Z" stroke-linejoin="miter" stroke-linecap="butt" fill-rule="nonzero" stroke-width="1.9999999801318606" stroke="none" fill="#FFFFFF" transform="translate(0 0)"/></svg>